<mxfile host="app.diagrams.net" modified="2023-09-28T18:46:33.161Z" agent="Mozilla/5.0 (X11; Linux x86_64; rv:109.0) Gecko/20100101 Firefox/114.0" version="21.8.2" etag="escGtwL4AQY5zWvgV6St" type="github">
  <diagram name="PÃ¡gina-1" id="3oa3MwjMkdHVgVlA6YHd">
    <mxGraphModel>
      <root>
        <mxCell id="0" />
        <mxCell id="1" parent="0" />
      </root>
    </mxGraphModel>
  </diagram>
</mxfile>
